<svg width="32" height="32" viewBox="0 0 32 32" fill="none" xmlns="http://www.w3.org/2000/svg">
<g id="Icons/Cross/Circle">
<g id="Circle 1" clip-path="url(#clip0_0_11498)">
<g id="Icons/Cross/Circle_2">
<g id="Cross-circle">
<path id="Oval" d="M16 27.5C22.3513 27.5 27.5 22.3513 27.5 16C27.5 9.64873 22.3513 4.5 16 4.5C9.64873 4.5 4.5 9.64873 4.5 16C4.5 22.3513 9.64873 27.5 16 27.5Z" stroke="#191919"/>
<g id="Group-3">
<path id="Rectangle-Copy-53" d="M11.7573 12.5288L19.4712 20.2427C19.6843 20.4557 20.0296 20.4557 20.2426 20.2427C20.4556 20.0296 20.4556 19.6843 20.2426 19.4713L12.5287 11.7574C12.3157 11.5444 11.9704 11.5444 11.7573 11.7574C11.5443 11.9704 11.5443 12.3158 11.7573 12.5288Z" fill="#191919"/>
<path id="Rectangle-Copy-53_2" fill-rule="evenodd" clip-rule="evenodd" d="M20.2427 12.5288L12.5288 20.2427C12.3158 20.4557 11.9705 20.4557 11.7574 20.2427C11.5444 20.0296 11.5444 19.6843 11.7574 19.4713L19.4713 11.7574C19.6843 11.5444 20.0297 11.5444 20.2427 11.7574C20.4557 11.9704 20.4557 12.3157 20.2427 12.5288Z" fill="#191919"/>
</g>
</g>
</g>
</g>
</g>
<defs>
<clipPath id="clip0_0_11498">
<rect width="32" height="32" fill="white"/>
</clipPath>
</defs>
</svg>
