<svg width="32" height="32" viewBox="0 0 32 32" fill="none" xmlns="http://www.w3.org/2000/svg">
<g id="Icons/Bell-dot">
<rect id="Background" opacity="0.01" width="32" height="32" fill="#1A1A21"/>
<rect id="Background Copy" x="21" y="4" width="7" height="7" rx="3.5" fill="#FE4E4E"/>
<g id="Bell">
<path id="Combined-Shape" fill-rule="evenodd" clip-rule="evenodd" d="M16.5 10.5C17.6489 10.5 18.7043 10.9353 19.501 11.6563C20.2978 12.3774 20.8359 13.3843 20.9502 14.5274L21.4 19.0269C21.4266 19.2925 21.6687 19.4782 21.9119 19.5884C22.065 19.6577 22.1974 19.7645 22.2978 19.8969C22.4248 20.0645 22.5 20.2735 22.5 20.5C22.5 20.7761 22.3881 21.0261 22.2071 21.2071C22.0261 21.3881 21.7761 21.5 21.5 21.5H11.5C11.2239 21.5 10.9739 21.3881 10.7929 21.2071C10.6119 21.0261 10.5 20.7761 10.5 20.5C10.5 20.2735 10.5752 20.0645 10.7022 19.8969C10.8026 19.7645 10.935 19.6577 11.0881 19.5884C11.3313 19.4782 11.5734 19.2925 11.6 19.0269L12.0498 14.5274C12.1641 13.3843 12.7022 12.3774 13.499 11.6563C14.2957 10.9353 15.3511 10.5 16.5 10.5Z" stroke="#191919"/>
<path id="Rectangle-Copy" fill-rule="evenodd" clip-rule="evenodd" d="M18 21.5V22C18 22.4142 17.8321 22.7892 17.5607 23.0607C17.2892 23.3321 16.9142 23.5 16.5 23.5C16.0858 23.5 15.7108 23.3321 15.4393 23.0607C15.1679 22.7892 15 22.4142 15 22V21.5H18Z" stroke="#191919"/>
</g>
</g>
</svg>
