<svg width="32" height="32" viewBox="0 0 32 32" fill="none" xmlns="http://www.w3.org/2000/svg">
<g id="Icons/Cloud-slash">
<g id="Cloud-slash 1" clip-path="url(#clip0_0_11413)">
<g id="Icons/Cloud-slash_2">
<g id="Cloud-slash">
<g id="Disconnect">
<path id="Combined-Shape" d="M23.141 10.1893C23.2913 10.6186 23.4083 11.0641 23.489 11.523L23.6568 11.5096L24 11.5C27.5992 11.5 30.5 14.6425 30.5 18.5C30.5 22.2618 27.7365 25.3588 24.2297 25.4956L24 25.5H7.99026L7.832 25.497L8.829 24.5L23.9903 24.5001L24.2005 24.4961C27.1437 24.3812 29.5 21.7404 29.5 18.5C29.5 15.1777 27.0282 12.5 24 12.5C23.712 12.5 23.4277 12.5241 23.1496 12.5718L22.6287 12.661L22.5685 12.1359C22.5233 11.7418 22.4478 11.3576 22.3444 10.9854L23.141 10.1893ZM15.1176 4.5C18.4231 4.5 21.3175 6.39627 22.7203 9.19607L21.9709 9.9464C20.7966 7.31315 18.1534 5.5 15.1176 5.5C11.303 5.5 8.10748 8.36305 7.66903 12.1193L7.62468 12.4993L7.24631 12.5558C4.54833 12.9591 2.5 15.4854 2.5 18.5C2.5 21.6125 4.67405 24.1718 7.44531 24.4706L6.58228 25.3333C3.66247 24.6352 1.5 21.8276 1.5 18.5C1.5 15.169 3.67479 12.3281 6.64687 11.6518L6.728 11.634L6.7521 11.4871C7.45441 7.57019 10.8229 4.62748 14.8538 4.50403L15.1176 4.5Z" fill="#1A1A21"/>
<path id="Rectangle-Copy" d="M26.9541 5.13024C27.1494 4.93498 27.1494 4.6184 26.9541 4.42313C26.7589 4.22787 26.4423 4.22787 26.247 4.42313L3.61962 27.0506C3.42435 27.2458 3.42435 27.5624 3.61962 27.7577C3.81488 27.9529 4.13146 27.9529 4.32672 27.7577L26.9541 5.13024Z" fill="#1A1A21"/>
</g>
</g>
</g>
</g>
</g>
<defs>
<clipPath id="clip0_0_11413">
<rect width="32" height="32" fill="white"/>
</clipPath>
</defs>
</svg>
