<svg width="32" height="32" viewBox="0 0 32 32" fill="none" xmlns="http://www.w3.org/2000/svg">
<g id="Icons/Dialog">
<g id="Icons/Dialog_2">
<g id="Dialog">
<path id="Combined-Shape" fill-rule="evenodd" clip-rule="evenodd" d="M22 10.5C22.4142 10.5 22.7892 10.6679 23.0607 10.9393C23.3321 11.2108 23.5 11.5858 23.5 12V19.6659C23.5 20.0801 23.3321 20.4551 23.0607 20.7266C22.7892 20.998 22.4142 21.1659 22.0002 21.1659L18.7585 21.1649L16.3288 23.287L15.4986 21.1648L12 21.1659C11.5858 21.1659 11.2108 20.998 10.9393 20.7266C10.6679 20.4551 10.5 20.0801 10.5 19.6659V12C10.5 11.5858 10.6679 11.2108 10.9393 10.9393C11.2108 10.6679 11.5858 10.5 12 10.5H22Z" stroke="#191919"/>
</g>
</g>
</g>
</svg>
