<svg width="32" height="32" viewBox="0 0 32 32" fill="none" xmlns="http://www.w3.org/2000/svg">
<g id="Icons/Document">
<g id="Icons/Document_2">
<g id="Document">
<path id="Path" d="M17.5 10V13.5H21V14.5H17.5C16.9477 14.5 16.5 14.0523 16.5 13.5V10H17.5Z" fill="#191919"/>
<path id="Path-2" d="M17.5858 9C17.851 9 18.1054 9.10536 18.2929 9.29289L21.7071 12.7071C21.8946 12.8946 22 13.149 22 13.4142V23C22 23.5523 21.5523 24 21 24H12C11.4477 24 11 23.5523 11 23V10C11 9.44772 11.4477 9 12 9H17.5858ZM17.5858 10H12V23H21V13.4142L17.5858 10Z" fill="#191919"/>
</g>
</g>
</g>
</svg>
