<svg width="32" height="32" viewBox="0 0 32 32" fill="none" xmlns="http://www.w3.org/2000/svg">
<g id="Icons/Eyes-open">
<g id="Icons/Eyes-open_2">
<g id="Eyes-open">
<path id="Oval" fill-rule="evenodd" clip-rule="evenodd" d="M16.0002 7.5C20.655 7.5 24.9193 10.4222 28.8423 16.1479C29.017 16.4029 29.1045 16.6985 29.1048 16.9942C29.1051 17.2898 29.0182 17.5856 28.8443 17.8405C24.9236 23.5748 20.6574 26.5 16.0002 26.5C11.3453 26.5 7.08105 23.5778 3.15805 17.8521C2.98333 17.5971 2.8958 17.3015 2.89551 17.0058C2.89522 16.7102 2.98216 16.4144 3.15608 16.1595C7.07675 10.4252 11.343 7.5 16.0002 7.5Z" stroke="#191919"/>
<path id="Oval_2" d="M16 21.5C18.4853 21.5 20.5 19.4853 20.5 17C20.5 14.5147 18.4853 12.5 16 12.5C13.5147 12.5 11.5 14.5147 11.5 17C11.5 19.4853 13.5147 21.5 16 21.5Z" stroke="#191919"/>
</g>
</g>
</g>
</svg>
