<svg width="32" height="32" viewBox="0 0 32 32" fill="none" xmlns="http://www.w3.org/2000/svg">
<g id="Icons/Gear">
<g id="Gear 1" clip-path="url(#clip0_0_11377)">
<g id="Icons/Gear_2">
<g id="Gear">
<g id="Settings">
<path id="Combined-Shape" fill-rule="evenodd" clip-rule="evenodd" d="M16.6798 3.5C17.0238 3.5 17.3457 3.61701 17.6026 3.81744C17.8594 4.01787 18.0512 4.30173 18.1349 4.63568L18.7009 6.88926C19.3239 7.07364 19.9202 7.32021 20.4826 7.62177L22.4698 6.431C22.7648 6.25418 23.1011 6.18905 23.4245 6.22895C23.7478 6.26884 24.0582 6.41375 24.3015 6.657L25.3098 7.66533C25.553 7.90858 25.698 8.21897 25.7379 8.54232C25.7777 8.86566 25.7126 9.20197 25.5358 9.49709L24.3532 11.4709C24.6618 12.0389 24.9142 12.6418 25.1028 13.2722L27.3314 13.832C27.6651 13.9156 27.9489 14.1073 28.1494 14.3642C28.3498 14.6211 28.4668 14.943 28.4668 15.287V16.713C28.4668 17.057 28.3498 17.3789 28.1494 17.6358C27.9489 17.8927 27.6651 18.0844 27.3311 18.1681L25.1028 18.7278C24.9142 19.3582 24.6618 19.9611 24.3532 20.5291L25.5358 22.503C25.7126 22.798 25.7777 23.1343 25.7379 23.4577C25.698 23.781 25.553 24.0914 25.3098 24.3347L24.3015 25.343C24.0582 25.5862 23.7478 25.7312 23.4245 25.7711C23.1011 25.8109 22.7648 25.7458 22.4697 25.569L20.4826 24.3782C19.9202 24.6798 19.3239 24.9264 18.7009 25.1107L18.1348 27.3646C18.0512 27.6983 17.8594 27.9821 17.6026 28.1826C17.3457 28.383 17.0238 28.5 16.6798 28.5H15.2538C14.9098 28.5 14.5878 28.383 14.331 28.1826C14.0741 27.9821 13.8824 27.6983 13.7987 27.3643L13.2271 25.089C12.6177 24.9034 12.0344 24.6581 11.4838 24.36L9.46384 25.569C9.16877 25.7458 8.83246 25.8109 8.50911 25.7711C8.18576 25.7312 7.87537 25.5862 7.63213 25.343L6.6238 24.3347C6.38055 24.0914 6.23564 23.781 6.19574 23.4577C6.15585 23.1343 6.22097 22.798 6.3978 22.503L7.61565 20.4708C7.32414 19.9253 7.08432 19.348 6.90275 18.7455L4.60221 18.168C4.26852 18.0844 3.98467 17.8927 3.78424 17.6358C3.58381 17.3789 3.4668 17.057 3.4668 16.713V15.287C3.4668 14.943 3.58381 14.6211 3.78424 14.3642C3.98467 14.1073 4.26852 13.9156 4.60241 13.8319L6.90275 13.2545C7.08432 12.652 7.32414 12.0747 7.61565 11.5292L6.3978 9.49704C6.22097 9.20197 6.15585 8.86566 6.19574 8.54232C6.23564 8.21897 6.38055 7.90858 6.6238 7.66533L7.63213 6.657C7.87537 6.41375 8.18576 6.26884 8.50911 6.22895C8.83246 6.18905 9.16877 6.25418 9.46407 6.43114L11.4838 7.64002C12.0344 7.34192 12.6177 7.09663 13.2271 6.91097L13.7988 4.63541C13.8824 4.30173 14.0741 4.01787 14.331 3.81744C14.5878 3.61701 14.9098 3.5 15.2538 3.5H16.6798Z" stroke="#191919"/>
<path id="Oval" d="M16 20.5C18.4853 20.5 20.5 18.4853 20.5 16C20.5 13.5147 18.4853 11.5 16 11.5C13.5147 11.5 11.5 13.5147 11.5 16C11.5 18.4853 13.5147 20.5 16 20.5Z" stroke="#191919"/>
</g>
</g>
</g>
</g>
</g>
<defs>
<clipPath id="clip0_0_11377">
<rect width="32" height="32" fill="white"/>
</clipPath>
</defs>
</svg>
