<svg width="32" height="32" viewBox="0 0 32 32" fill="none" xmlns="http://www.w3.org/2000/svg">
<g id="Icons/Helmet-dot">
<g id="Helmet-dot">
<rect id="Background" opacity="0.01" width="32" height="32" fill="#D8D8D8"/>
<g id="path" clip-path="url(#clip0_0_11330)">
<g id="Icons/Helmet-dot_2">
<g id="Helmet-dot_2">
<g id="path_2">
<g id="Helmet">
<path id="Path" d="M18.0497 4.5025C20.0706 4.70441 21.7411 5.40824 23.1737 6.48526C23.5417 6.76189 23.881 7.05338 24.2154 7.3718L24.4091 7.55964L24.916 8.0757C25.5588 8.73585 26.231 9.57842 26.7286 10.3349L26.962 10.7048C27.2873 11.2451 27.4953 11.7118 27.4999 11.9918L27.5046 12.8718L27.5 14.0032L26.5 13.9968L26.5046 12.694L26.5001 12.0083C26.4983 11.8995 26.3813 11.6568 26.1901 11.3415L26.0088 11.0548L25.7969 10.7412C25.7593 10.6871 25.7207 10.6323 25.6812 10.5769L25.4339 10.2389L25.1701 9.89537C25.125 9.83813 25.0796 9.78101 25.0338 9.7242L24.756 9.38845C24.5694 9.16897 24.3814 8.96012 24.1995 8.77332L23.7357 8.30159L23.4861 8.05637L23.2631 7.84799L23.0486 7.66052L22.8246 7.47802L22.5728 7.28456C21.2798 6.31245 19.7793 5.68029 17.9503 5.49755C10.782 4.78134 4.52184 8.82328 4.4988 14.8971L4.5101 15.1415C4.51092 15.1813 4.51123 15.2218 4.51108 15.2643L4.5 15.7992C4.5 22.2523 8.77301 26.3658 14.8945 26.4968L15.197 26.5H24C25.7481 26.5 26.4875 25.7458 26.5 23.9965L26.5094 22.0035L26.5093 20.0013L27.5093 19.9988C27.5125 21.3399 27.5095 22.6748 27.5 24.0036C27.4842 26.22 26.3811 27.4186 24.2266 27.496L24 27.5H15.197C8.48065 27.5 3.65048 23.0648 3.50345 16.1299L3.502 15.6549L3.51092 15.268C3.51105 15.2305 3.51077 15.1946 3.51005 15.1587L3.5 14.93C3.52426 8.14362 10.3544 3.73365 18.0497 4.5025Z" fill="#191919"/>
<path id="Path-6-Copy-20" d="M27.2133 13H13.0107C12.3293 13 11.8434 13.6543 12.0467 14.2983L13.0545 17.4914C13.7133 19.5788 15.6657 21 17.8744 21H26.9801C28.0956 21 29 20.1046 29 19C29 18.8966 28.9919 18.7934 28.9758 18.6912L28.2111 13.8456C28.1343 13.3588 27.7108 13 27.2133 13ZM27.2222 14L27.9879 18.8456C27.9959 18.8967 28 18.9483 28 19C28 19.5128 27.6096 19.9355 27.1066 19.9933L26.9886 20H17.8704C16.1718 20 14.6624 18.9521 14.0774 17.3909L14.0092 17.1931L13 14H27.2222Z" fill="#191919"/>
</g>
<g id="Dot">
<path id="Background_2" d="M32 3.5C32 1.567 30.433 0 28.5 0C26.567 0 25 1.567 25 3.5C25 5.433 26.567 7 28.5 7C30.433 7 32 5.433 32 3.5Z" fill="#FE4E4E"/>
</g>
</g>
</g>
</g>
</g>
</g>
</g>
<defs>
<clipPath id="clip0_0_11330">
<rect width="28.5" height="27.5" fill="white" transform="translate(3.5)"/>
</clipPath>
</defs>
</svg>
