<svg width="32" height="32" viewBox="0 0 32 32" fill="none" xmlns="http://www.w3.org/2000/svg">
<g id="Icons/Phone">
<g id="Phone">
<rect id="Background" opacity="0.01" width="32" height="32" fill="#1A1A21"/>
<path id="Path" d="M21.8449 20.9093C21.5481 21.9057 20.5257 22.9998 19.8908 22.9998C19.8449 23.0011 19.8068 22.9949 19.7683 22.9849C17.4772 22.281 15.6944 21.0096 13.9866 18.8617C12.4433 16.9199 11.4974 14.7754 11.0964 12.3052C10.9432 11.302 12.1897 10.2576 13.1055 10.0423C13.2246 10.0143 13.337 10 13.4397 10C13.7676 10 13.9764 10.1469 14.0422 10.4257L14.9143 13.0284C15.0505 13.3377 14.8649 13.5817 14.5506 13.9545C14.1336 14.4493 13.6144 15.0654 14.3878 16.0375L16.5427 18.7473C17.3126 19.7151 17.9356 19.2409 18.436 18.8593C18.8134 18.5718 19.0579 18.405 19.32 18.5986L21.6106 19.941C21.8194 20.0362 22.0316 20.2814 21.8449 20.9094L21.8449 20.9093Z" stroke="#979797"/>
</g>
</g>
</svg>
