<svg width="32" height="32" viewBox="0 0 32 32" fill="none" xmlns="http://www.w3.org/2000/svg">
<g id="Icons/Smartphone">
<g id="Icons/Smartphone_2">
<g id="Smartphone">
<path id="Rectangle" d="M20.5 21.5L20.5 11.5C20.5 10.3954 19.6046 9.5 18.5 9.5L14.5 9.5C13.3954 9.5 12.5 10.3954 12.5 11.5L12.5 21.5C12.5 22.6046 13.3954 23.5 14.5 23.5H18.5C19.6046 23.5 20.5 22.6046 20.5 21.5Z" stroke="#191919"/>
<path id="Oval" d="M16.5 22.5C17.0523 22.5 17.5 22.0523 17.5 21.5C17.5 20.9477 17.0523 20.5 16.5 20.5C15.9477 20.5 15.5 20.9477 15.5 21.5C15.5 22.0523 15.9477 22.5 16.5 22.5Z" fill="#191919"/>
</g>
</g>
</g>
</svg>
