<svg width="156" height="177" viewBox="0 0 156 177" fill="none" xmlns="http://www.w3.org/2000/svg">
<g id="Illustration/Shield/Alert">
<g id="Alert 1" clip-path="url(#clip0_0_11080)">
<g id="Illustration/Shield/Alert_2">
<path id="Rectangle" fill-rule="evenodd" clip-rule="evenodd" d="M40 56.0513L78 43L116 56.0513C116 60.1882 116 70.6919 116 87.5627C116 104.433 103.333 119.246 78 132C52.6667 119.246 40 104.433 40 87.5627C40 70.6919 40 60.1882 40 56.0513Z" fill="#2A151B"/>
<path id="Rectangle_2" d="M78 0.706512L90.9932 5.16911L128.993 18.2204L156 27.4961V87.5627C156 105.933 149.203 122.935 136.9 137.322C126.735 149.209 113.047 159.139 95.9872 167.728L78 176.783L60.0128 167.728C42.9534 159.139 29.2649 149.209 19.0996 137.322C6.7971 122.935 0 105.933 0 87.5627V27.4961L27.0068 18.2204L65.0068 5.16911L78 0.706512ZM78 43L40 56.0513V87.5627C40 104.433 52.6667 119.246 78 132C103.333 119.246 116 104.433 116 87.5627V56.0513L78 43Z" fill="#C60000" fill-opacity="0.1"/>
<path id="Rectangle_3" d="M78 27.1399L82.8725 28.8134L120.872 41.8647L131 45.3431V87.5626C131 111.195 114.608 130.363 84.7452 145.398L78 148.794L71.2548 145.398C41.3917 130.363 25 111.195 25 87.5626V45.3431L35.1275 41.8647L73.1275 28.8134L78 27.1399ZM78 43L40 56.0513V87.5626C40 104.433 52.6667 119.246 78 132C103.333 119.246 116 104.433 116 87.5626V56.0513L78 43Z" fill="#C60000" fill-opacity="0.2"/>
<path id="Rectangle_4" d="M78 39.828L78.9745 40.1627L116.974 53.214L119 53.9097V87.5627C119 105.786 105.588 121.469 79.349 134.68L78 135.359L76.651 134.68C50.4117 121.469 37 105.786 37 87.5627V53.9097L39.0255 53.214L77.0255 40.1627L78 39.828ZM78 43L40 56.0513V87.5627C40 104.433 52.6667 119.246 78 132C103.333 119.246 116 104.433 116 87.5627V56.0513L78 43Z" fill="#C60000"/>
<g id="Exclamation-thick">
<g id="Path">
<g id="Group-2">
<path id="Rectangle-Copy-52" d="M78 94C78.5523 94 79 93.5522 79 93C79 92.4477 78.5523 92 78 92C77.4477 92 77 92.4477 77 93C77 93.5522 77.4477 94 78 94Z" fill="white"/>
<path id="Rectangle-Copy-52_2" d="M79 88V75C79 74.4477 78.5523 74 78 74C77.4477 74 77 74.4477 77 75V88C77 88.5523 77.4477 89 78 89C78.5523 89 79 88.5523 79 88Z" fill="white"/>
</g>
</g>
</g>
</g>
</g>
</g>
<defs>
<clipPath id="clip0_0_11080">
<rect width="156" height="177" fill="white"/>
</clipPath>
</defs>
</svg>
