<svg width="144" height="144" viewBox="0 0 144 144" fill="none" xmlns="http://www.w3.org/2000/svg">
<g id="Illustration/Shield/Check">
<g id="Illustration/Shield/Check_2">
<g id="Group">
<g id="Illustration">
<path id="Rectangle" fill-rule="evenodd" clip-rule="evenodd" d="M34 40.0513L72 27L110 40.0513C110 44.1882 110 54.6919 110 71.5627C110 88.4334 97.3333 103.246 72 116C46.6667 103.246 34 88.4334 34 71.5627C34 54.6919 34 44.1882 34 40.0513Z" fill="#3B3A4F"/>
<path id="Rectangle_2" d="M72 23.828L72.9745 24.1627L110.974 37.214L113 37.9097V71.5627C113 89.7856 99.5883 105.469 73.349 118.68L72 119.359L70.651 118.68C44.4117 105.469 31 89.7856 31 71.5627V37.9097L33.0255 37.214L71.0255 24.1627L72 23.828ZM72 27L34 40.0513V71.5627C34 88.4334 46.6667 103.246 72 116C97.3333 103.246 110 88.4334 110 71.5627V40.0513L72 27Z" fill="#5DBA5E"/>
<path id="Rectangle_3" fill-rule="evenodd" clip-rule="evenodd" d="M72 26.4713L110.5 39.6944V71.5627C110.5 80.1111 107.3 88.1425 100.88 95.65C94.5114 103.097 84.963 110.034 72.2248 116.447C59.037 110.034 49.4886 103.097 43.12 95.65C36.7001 88.1425 33.5 80.1111 33.5 71.5627V39.6944L72 26.4713Z" stroke="#5DBA5E"/>
<g id="Check">
<g id="Path">
<path id="Rectangle-Copy-52" d="M70.1217 76.1421L82.1425 64.1213C82.533 63.7308 82.533 63.0976 82.1425 62.7071C81.752 62.3166 81.1188 62.3166 80.7283 62.7071L68.7075 74.7279C68.317 75.1184 68.3169 75.7516 68.7075 76.1421C69.098 76.5326 69.7312 76.5326 70.1217 76.1421Z" fill="white"/>
<path id="Rectangle-Copy-53" d="M69.778 74.3639L64.1212 68.7071C63.7306 68.3166 63.0975 68.3166 62.707 68.7071C62.3164 69.0976 62.3164 69.7308 62.707 70.1213L68.3638 75.7781C68.7543 76.1687 69.3875 76.1687 69.778 75.7781C70.1685 75.3876 70.1685 74.7545 69.778 74.3639Z" fill="white"/>
</g>
</g>
</g>
</g>
</g>
</g>
</svg>
