<svg width="144" height="144" viewBox="0 0 144 144" fill="none" xmlns="http://www.w3.org/2000/svg">
<g id="Illustration/Shield/Warning">
<g id="Illustration/Shield/Warning_2">
<g id="Shield-warning">
<g id="Group">
<path id="Rectangle" fill-rule="evenodd" clip-rule="evenodd" d="M34 43.0513L72 30L110 43.0513C110 47.1882 110 57.6919 110 74.5627C110 91.4334 97.3333 106.246 72 119C46.6667 106.246 34 91.4334 34 74.5627C34 57.6919 34 47.1882 34 43.0513Z" fill="#2A151B"/>
<path id="Rectangle_2" d="M72 27L72.9745 27.3328L110.974 40.3116L113 41.0034V74.4695C113 92.5912 99.5883 108.188 73.349 121.325L72 122L70.651 121.325C44.4117 108.188 31 92.5912 31 74.4695V41.0034L33.0255 40.3116L71.0255 27.3328L72 27ZM72 30.1544L34 43.1332V74.4695C34 91.2464 46.6667 105.977 72 118.66C97.3333 105.977 110 91.2464 110 74.4695V43.1332L72 30.1544Z" fill="#C60000"/>
<g id="Exclamation-thick">
<g id="Path">
<g id="Group-2">
<path id="Rectangle-Copy-52" d="M72 81C72.5523 81 73 80.5523 73 80C73 79.4477 72.5523 79 72 79C71.4477 79 71 79.4477 71 80C71 80.5523 71.4477 81 72 81Z" fill="white"/>
<path id="Rectangle-Copy-52_2" d="M73 75V62C73 61.4477 72.5523 61 72 61C71.4477 61 71 61.4477 71 62V75C71 75.5523 71.4477 76 72 76C72.5523 76 73 75.5523 73 75Z" fill="white"/>
</g>
</g>
</g>
</g>
</g>
</g>
</g>
</svg>
