<svg width="18" height="11" viewBox="0 0 18 11" fill="none" xmlns="http://www.w3.org/2000/svg">
<path d="M10.7739 10.7373H8.41553L7.47803 8.29834H3.18604L2.2998 10.7373H0L4.18213 0H6.47461L10.7739 10.7373ZM6.78223 6.48926L5.30273 2.50488L3.85254 6.48926H6.78223ZM15.6768 8.5918L17.4541 8.89014C17.2256 9.54183 16.8638 10.0391 16.3687 10.3818C15.8778 10.7204 15.262 10.8896 14.5215 10.8896C13.3493 10.8896 12.4818 10.5067 11.9189 9.74072C11.4746 9.12712 11.2524 8.3527 11.2524 7.41748C11.2524 6.30029 11.5444 5.42643 12.1284 4.7959C12.7124 4.16113 13.4508 3.84375 14.3438 3.84375C15.3467 3.84375 16.138 4.17594 16.7178 4.84033C17.2975 5.50049 17.5747 6.514 17.5493 7.88086H13.0806C13.0933 8.40983 13.2371 8.82243 13.5122 9.11865C13.7873 9.41064 14.13 9.55664 14.5405 9.55664C14.8198 9.55664 15.0547 9.48047 15.2451 9.32812C15.4355 9.17578 15.5794 8.93034 15.6768 8.5918ZM15.7783 6.78906C15.7656 6.27279 15.6323 5.88135 15.3784 5.61475C15.1245 5.34391 14.8156 5.2085 14.4517 5.2085C14.0623 5.2085 13.7407 5.35026 13.4868 5.63379C13.2329 5.91732 13.1081 6.30241 13.1123 6.78906H15.7783Z" fill="#1A1A1A"/>
</svg>
