<svg width="21" height="17" viewBox="0 0 21 17" fill="none" xmlns="http://www.w3.org/2000/svg">
<g clip-path="url(#clip0_959_161)">
<path d="M20.9383 9.46673C20.8151 8.6041 20.5148 7.78604 20.0455 7.03553C19.6363 6.38053 19.1111 5.79799 18.4843 5.30287L18.486 5.30132L11.9029 0.270417C11.8981 0.266259 11.8932 0.262343 11.888 0.258682C11.6692 0.0918561 11.3728 6.10352e-05 11.0539 6.10352e-05C10.7346 6.10352e-05 10.4267 0.0920606 10.1873 0.259214C9.92995 0.438101 9.78283 0.67546 9.77256 0.928111C9.76315 1.16383 9.87616 1.39064 10.0916 1.56745C10.5153 1.90008 10.938 2.23994 11.3614 2.58022C11.7722 2.9106 12.1955 3.25083 12.6168 3.58207L4.55346 3.57663C3.63134 3.57663 3.00346 4.00748 2.8743 4.7288C2.81755 5.04474 2.9177 5.39213 3.14158 5.6582C3.37911 5.94024 3.72397 6.09583 4.1126 6.09583L4.72729 6.09624C5.57647 6.09624 6.42939 6.09415 7.28116 6.09211L8.09343 6.09022L0.775313 11.4772L0.746259 11.4984C0.337492 11.8101 0.0698839 12.2472 0.012146 12.6974C-0.0316197 13.0385 0.0483504 13.3502 0.243508 13.5991C0.476104 13.8959 0.839256 14.0591 1.26615 14.0591C1.68552 14.0591 2.11343 13.901 2.47161 13.6131L6.42351 10.3951C6.40662 10.5523 6.38612 10.7828 6.38846 10.9501C6.3929 11.215 6.47837 11.7466 6.6137 12.1781C6.89331 13.065 7.36429 13.8765 8.0135 14.5891C8.68902 15.3305 9.51173 15.9183 10.4586 16.3359C11.4597 16.7764 12.5358 17.0001 13.6573 17.0001H13.6677C14.7927 16.9974 15.8722 16.7702 16.8765 16.3246C17.825 15.9021 18.6473 15.3118 19.3203 14.5706C19.9687 13.8543 20.439 13.0415 20.7181 12.1554C20.8561 11.7167 20.9446 11.2641 20.9818 10.806C21.0162 10.3631 21.0014 9.91254 20.9383 9.46673ZM13.7392 13.7175C11.2678 13.7175 9.2636 11.9336 9.2636 9.733C9.2636 7.53261 11.2678 5.74876 13.7392 5.74876C16.2108 5.74876 18.2147 7.53261 18.2147 9.733C18.2148 11.9336 16.2108 13.7175 13.7392 13.7175ZM16.3203 9.38287C16.3567 10.0397 16.0931 10.6495 15.6301 11.101C15.1591 11.5609 14.487 11.8498 13.7355 11.8498C12.9843 11.8498 12.3121 11.5609 11.8409 11.101C11.3781 10.6495 11.115 10.0397 11.1512 9.3834C11.1867 8.74541 11.4995 8.18225 11.9706 7.78351C12.4339 7.39142 13.0559 7.15223 13.7354 7.15223C14.415 7.15223 15.0369 7.39151 15.5002 7.78351C15.9715 8.18225 16.2844 8.745 16.3203 9.38287Z" fill="#1A1A1A"/>
</g>
<defs>
<clipPath id="clip0_959_161">
<rect width="21" height="17" fill="white"/>
</clipPath>
</defs>
</svg>
