<svg width="12" height="17" viewBox="0 0 12 17" fill="none" xmlns="http://www.w3.org/2000/svg">
<path d="M10.4627 5.82409C11.0627 5.46401 11.5254 4.92378 11.7805 4.28535C12.0357 3.64692 12.0693 2.94514 11.8764 2.28647C11.6835 1.6278 11.2745 1.04818 10.7115 0.635545C10.1485 0.222911 9.46221 -0.000220984 8.75675 1.64228e-07H3.24324C2.53779 -0.000220984 1.8515 0.222911 1.28851 0.635545C0.725515 1.04818 0.316532 1.6278 0.123603 2.28647C-0.0693259 2.94514 -0.0356711 3.64692 0.219462 4.28535C0.474594 4.92378 0.937282 5.46401 1.53733 5.82409C1.06733 6.10592 0.679369 6.49972 0.4103 6.96807C0.141231 7.43643 -7.9615e-06 7.96378 3.36595e-10 8.50004C7.96217e-06 9.0363 0.141263 9.56365 0.410346 10.032C0.679428 10.5003 1.0674 10.8941 1.53741 11.176C1.05696 11.4646 0.662543 11.8701 0.393241 12.3522C0.123939 12.8344 -0.0108979 13.3765 0.00208932 13.9248C0.0150766 14.4731 0.175438 15.0086 0.467283 15.4782C0.759129 15.9478 1.17233 16.3353 1.66594 16.6022C2.15955 16.8691 2.71643 17.0061 3.28141 16.9998C3.8464 16.9934 4.39986 16.8439 4.88697 16.566C5.37408 16.2881 5.77792 15.8914 6.05848 15.4154C6.33904 14.9393 6.48658 14.4003 6.48648 13.8519V10.7454C6.81186 11.0557 7.20103 11.2958 7.62856 11.4501C8.0561 11.6045 8.51237 11.6694 8.96755 11.6409C9.42273 11.6123 9.86657 11.4908 10.2701 11.2843C10.6736 11.0778 11.0276 10.791 11.3091 10.4426C11.5906 10.0942 11.7932 9.69209 11.9036 9.2625C12.014 8.83291 12.0298 8.38553 11.9499 7.94962C11.87 7.5137 11.6962 7.09906 11.44 6.73279C11.1837 6.36652 10.8507 6.05687 10.4627 5.82409V5.82409ZM11.027 3.14818C11.0263 3.73217 10.7872 4.29208 10.3619 4.70516C9.93661 5.11825 9.35996 5.35081 8.75833 5.35186L8.75675 5.35182L8.75362 5.3519L6.48648 5.35182V0.944453H8.75675C9.35865 0.945108 9.93571 1.1775 10.3613 1.59063C10.7869 2.00377 11.0263 2.56391 11.027 3.14818ZM0.972972 3.14818C0.973647 2.56391 1.21305 2.00377 1.63866 1.59063C2.06428 1.1775 2.64134 0.945108 3.24324 0.944453H5.51351V5.35182H3.24324L3.2417 5.35186C2.64007 5.35081 2.06341 5.11826 1.63813 4.70517C1.21285 4.29209 0.973654 3.73218 0.972972 3.14818ZM0.972972 8.5C0.973652 7.916 1.21285 7.35609 1.63813 6.943C2.06341 6.52992 2.64007 6.29736 3.2417 6.29631L3.24324 6.29635L5.51351 6.2963V10.7036L3.24324 10.7037C2.64134 10.7031 2.06428 10.4707 1.63866 10.0575C1.21305 9.64441 0.973647 9.08426 0.972972 8.5ZM3.24324 16.0555C2.94495 16.0558 2.64953 15.999 2.37387 15.8883C2.09821 15.7777 1.84772 15.6154 1.63671 15.4108C1.42569 15.2061 1.2583 14.9631 1.14409 14.6956C1.02988 14.4281 0.971094 14.1414 0.971094 13.8519C0.971094 13.5623 1.02988 13.2756 1.14409 13.0081C1.2583 12.7406 1.42569 12.4976 1.63671 12.293C1.84772 12.0883 2.09821 11.926 2.37387 11.8154C2.64953 11.7048 2.94495 11.6479 3.24324 11.6482L5.51351 11.6481V13.8519C5.51283 14.4361 5.27342 14.9963 4.84781 15.4094C4.42219 15.8225 3.84514 16.0549 3.24324 16.0555ZM8.75675 10.7037C8.15503 10.7036 7.57799 10.4715 7.15243 10.0586C6.72687 9.64567 6.48759 9.08564 6.48717 8.50155C6.48676 7.91747 6.72524 7.35712 7.15022 6.94363C7.5752 6.53014 8.15191 6.29733 8.75362 6.29635H8.75675L8.75829 6.29632C9.36001 6.29708 9.93681 6.5297 10.3619 6.94305C10.7871 7.35641 11.0258 7.91668 11.0255 8.50077C11.0253 9.08485 10.7863 9.64497 10.3608 10.058C9.93543 10.4711 9.35847 10.7034 8.75675 10.7037Z" fill="#1A1A1A"/>
</svg>
