<svg width="12" height="17" viewBox="0 0 12 17" fill="none" xmlns="http://www.w3.org/2000/svg">
<path fill-rule="evenodd" clip-rule="evenodd" d="M0 14.3707V6.20635C0 2.77866 2.68628 0 6 0C9.31372 0 12 2.77866 12 6.20635C12 9.58892 9.3839 12.3395 6.13043 12.4112V12.4127C5.19391 12.4127 4.43478 11.6275 4.43478 10.6587C4.43478 9.69907 5.17988 8.91939 6.10435 8.90498V8.90266C7.49671 8.84599 8.6087 7.66047 8.6087 6.20635C8.6087 4.71607 7.44073 3.50794 6 3.50794C4.55927 3.50794 3.3913 4.71607 3.3913 6.20635V15.246C3.3913 16.2148 2.63217 17 1.69565 17C1.34681 17.0006 1.00637 16.8893 0.721148 16.6816C1.20887 16.5341 1.56522 16.0681 1.56522 15.5159C1.56522 14.8453 1.03962 14.3016 0.391304 14.3016C0.254087 14.3016 0.1224 14.3259 0 14.3707ZM6.13043 11.873C6.77875 11.873 7.30435 11.3293 7.30435 10.6587C7.30435 9.98812 6.77875 9.44444 6.13043 9.44444C5.48212 9.44444 4.95652 9.98812 4.95652 10.6587C4.95652 11.3293 5.48212 11.873 6.13043 11.873Z" fill="#1A1A1A"/>
</svg>
