<svg width="20" height="18" viewBox="0 0 20 18" fill="none" xmlns="http://www.w3.org/2000/svg">
<path d="M10 0L15.625 5.55656V0.627907L10 0ZM10 0L4.95833 5.86047H15.0417L10 0ZM10 0L4.375 0.627907V5.55656L10 0ZM4.375 0.627907L0 6.48837L3.68 5.91907L4.375 0.627907ZM0 6.48837L9.96583 17.9606L9.9725 17.9489L3.7025 6.48837H0ZM15.625 0.627907L16.32 5.91907L20 6.48837L15.625 0.627907ZM20 6.48837H16.245L9.97583 17.9498L10 18L20 6.48837ZM10 18L9.97417 17.9523L9.9675 17.9623L10 18ZM4.53 6.48837L9.97417 17.9464L15.47 6.48837H4.53Z" fill="#1A1A1A"/>
</svg>
