<svg width="32" height="32" viewBox="0 0 32 32" fill="none" xmlns="http://www.w3.org/2000/svg">
<g id="Icons/Shield/Thin">
<g id="Shield-thin">
<rect id="Background" opacity="0.01" width="32" height="32" fill="#1A1A21"/>
<path id="Rectangle" d="M26.5 16.0166C26.5 19.6639 23.8428 22.7894 21.3252 24.9473C20.0516 26.0389 18.7807 26.9116 17.8291 27.5107C17.3529 27.8106 16.9553 28.0424 16.6758 28.2002C16.536 28.2791 16.4256 28.3399 16.3496 28.3809C16.3116 28.4013 16.282 28.4171 16.2617 28.4277C16.2517 28.433 16.2437 28.4366 16.2383 28.4395C16.2357 28.4408 16.2339 28.4426 16.2324 28.4434L16.2305 28.4443H16.2295L16 28.5625L15.7705 28.4443L15.7676 28.4434C15.7661 28.4426 15.7643 28.4408 15.7617 28.4395C15.7563 28.4366 15.7483 28.433 15.7383 28.4277C15.718 28.4171 15.6884 28.4013 15.6504 28.3809C15.5744 28.3399 15.464 28.2791 15.3242 28.2002C15.0447 28.0424 14.6471 27.8106 14.1709 27.5107C13.2193 26.9116 11.9484 26.0389 10.6748 24.9473C8.15717 22.7894 5.5 19.6639 5.5 16.0166V7.16504L5.83398 7.04785L15.834 3.52832L16 3.46973L16.166 3.52832L26.166 7.04785L26.5 7.16504V16.0166Z" stroke="#979797"/>
</g>
</g>
</svg>
