<svg width="32" height="32" viewBox="0 0 32 32" fill="none" xmlns="http://www.w3.org/2000/svg">
<g id="Icons/Helmet/Thick">
<g id="Icons/Helmet/Thick_2">
<g id="Helmet-thick">
<g id="Icon">
<path id="Path" d="M18.0994 4.00495C20.2162 4.21645 21.9718 4.9561 23.4742 6.08558C23.8587 6.37463 24.2124 6.67857 24.5602 7.00965L24.76 7.20343L25.2742 7.72686C25.5047 7.96354 25.737 8.21959 25.9636 8.48582L26.2982 8.89165C27.229 10.0566 27.9889 11.3224 27.9999 11.9835L28.0046 12.8702L28 14.0064L26 13.9936L26.0046 12.6966L26.0001 12.0165C25.9998 11.9942 25.9806 11.9476 25.9456 11.8811L25.8551 11.723C25.8368 11.6927 25.8169 11.6605 25.7955 11.6266L25.6508 11.4043L25.3794 11.0119L25.0577 10.5729L24.8238 10.2677L24.5801 9.96207L24.3318 9.66386L24.0839 9.38119C24.0429 9.33582 24.0021 9.29144 23.9616 9.2482L23.5258 8.79989L23.2638 8.53778C22.9019 8.18188 22.6608 7.97623 22.2723 7.68419C21.0491 6.76454 19.6336 6.1682 17.9006 5.99504C10.9958 5.30517 5.02062 9.16308 4.99759 14.8625C5.00754 15.0057 5.01151 15.1244 5.01113 15.2613L5 15.7997C5 21.97 9.04524 25.8685 14.8978 25.9967L15.197 26H24C25.4703 26 25.9895 25.4704 26 23.9929L26.0094 22.0023L26.0093 20.0025L28.0092 19.9975C28.0125 21.3402 28.0095 22.6767 28 24.0071C27.9822 26.4941 26.6652 27.9124 24.2314 27.9961L24 28H15.197C8.21386 28 3.15519 23.3527 3.0035 16.1378L3.00208 15.6448L3.00594 15.5106C3.00957 15.3916 3.01139 15.3031 3.01065 15.2159L3 14.9282C3.02547 7.80377 10.1407 3.20977 18.0994 4.00495Z" fill="#191919"/>
<path id="Path-6-Copy-20" d="M27.2063 12H13.0191C11.6579 12 10.6872 13.3087 11.0933 14.5965L12.0999 17.7896C12.8897 20.2945 15.23 22 17.8776 22H26.9734C28.6449 22 30 20.6569 30 19C30 18.8449 29.9879 18.6901 29.9637 18.5369L29.1999 13.6912C29.0464 12.7177 28.2004 12 27.2063 12ZM27.2222 14L27.9879 18.8456C27.9959 18.8967 28 18.9483 28 19C28 19.5128 27.6096 19.9355 27.1066 19.9933L26.9886 20H17.8704C16.1718 20 14.6624 18.9521 14.0774 17.3909L14.0092 17.1931L13 14H27.2222Z" fill="#191919"/>
</g>
</g>
</g>
</g>
</svg>
