<svg width="32" height="32" viewBox="0 0 32 32" fill="none" xmlns="http://www.w3.org/2000/svg">
<g id="Icons/Eyes-hide/Big">
<g id="Icons/Eyes-hide/Big_2">
<g id="Eyes-hide-big">
<path id="Combined-Shape" d="M29.2548 15.8653C29.6874 16.4968 29.7191 17.3148 29.3494 17.9736L29.257 18.1227C25.2103 24.0412 20.7909 27 16.0002 27C13.4884 27 11.0787 26.1867 8.77074 24.5603L9.48868 23.842C11.5899 25.2862 13.7597 26 16.0002 26C20.4153 26 24.5549 23.2281 28.4309 17.5592C28.6632 17.2187 28.6628 16.7705 28.4298 16.4305C26.6412 13.82 24.7977 11.8247 22.8978 10.4321L23.6127 9.7178C25.5669 11.1784 27.4475 13.2276 29.2548 15.8653ZM16.0002 7C18.3497 7 20.61 7.71168 22.7813 9.13483L22.0579 9.85815C20.0984 8.61496 18.0797 8 16.0002 8C11.5851 8 7.44541 10.7719 3.56942 16.4408C3.33713 16.7813 3.33757 17.2295 3.5705 17.5695C5.22436 19.9833 6.92514 21.8712 8.67406 23.2428L7.96231 23.9541C6.16018 22.5203 4.42133 20.5805 2.74556 18.1347C2.31292 17.5032 2.28125 16.6852 2.6509 16.0264L2.74333 15.8773C6.79 9.95875 11.2094 7 16.0002 7ZM21.0002 17C21.0002 19.7614 18.7616 22 16.0002 22C14.7036 22 13.5223 21.5065 12.6339 20.6971L13.3414 19.9886C14.0482 20.6177 14.9795 21 16.0002 21C18.2093 21 20.0002 19.2091 20.0002 17C20.0002 15.9797 19.6182 15.0487 18.9894 14.342L19.6965 13.6329C20.5063 14.5214 21.0002 15.703 21.0002 17ZM16.0002 12C17.1046 12 18.1253 12.3581 18.9527 12.9644L18.2348 13.6819C17.5968 13.2514 16.8278 13 16.0002 13C13.791 13 12.0002 14.7909 12.0002 17C12.0002 17.8272 12.2513 18.5958 12.6814 19.2337L11.964 19.9517C11.358 19.1245 11.0002 18.104 11.0002 17C11.0002 14.2386 13.2387 12 16.0002 12Z" fill="#191919"/>
<path id="Rectangle-Copy" d="M26.9541 5.13024C27.1494 4.93498 27.1494 4.6184 26.9541 4.42313C26.7589 4.22787 26.4423 4.22787 26.247 4.42313L3.61962 27.0506C3.42435 27.2458 3.42435 27.5624 3.61962 27.7577C3.81488 27.9529 4.13146 27.9529 4.32672 27.7577L26.9541 5.13024Z" fill="#191919"/>
</g>
</g>
</g>
</svg>
