<svg width="32" height="32" viewBox="0 0 32 32" fill="none" xmlns="http://www.w3.org/2000/svg">
<g id="Icons/Eyes-hide/Small">
<g id="Icons/Eyes-hide/Small_2">
<g id="Eyes-hide-small">
<g id="hidden-eye">
<path id="Path-9" d="M9.5 24.5L22.5 9.5" stroke="#191919" stroke-linecap="round" stroke-linejoin="round"/>
<path id="Combined-Shape" d="M25.0128 16.1362L25.0971 16.2709C25.3518 16.7263 25.3511 17.2829 25.0951 17.7379L25.0106 17.8712C22.3558 21.6052 19.3478 23.5 16 23.5C14.8281 23.5 13.6978 23.2678 12.6099 22.8058L13.3808 22.0345C14.142 22.313 14.9218 22.4661 15.7205 22.495L16 22.5C18.9874 22.5 21.7136 20.7827 24.1954 17.2921C24.3181 17.1191 24.3184 16.8875 24.1961 16.7143L23.964 16.3925C23.2051 15.3635 22.4234 14.4985 21.6184 13.7959L22.3265 13.0877C23.2588 13.9099 24.1544 14.9267 25.0128 16.1362ZM16 10.5C17.6526 10.5 19.2222 10.9617 20.7071 11.8784L19.9784 12.6074C18.7932 11.9173 17.5606 11.5514 16.2795 11.505L16 11.5C13.0121 11.5 10.2862 13.2178 7.80662 16.7095L7.79602 16.721L7.75955 16.7853C7.69687 16.9191 7.69668 17.0743 7.75903 17.2082L7.80394 17.2857L8.03603 17.6075C9.14574 19.1122 10.3043 20.2663 11.5131 21.0746L10.7926 21.7933C9.45268 20.8614 8.18375 19.5498 6.98725 17.8638L6.98002 17.85L6.90294 17.7291C6.64824 17.2737 6.64893 16.7171 6.90477 16.2623L6.98917 16.1292L7.01202 16.103L7.23338 15.796C9.74517 12.3922 12.5705 10.6131 15.6966 10.5052L16 10.5ZM20 17C20 19.2091 18.2092 21 16 21C15.5257 21 15.0707 20.9175 14.6486 20.766L15.4624 19.952C15.6368 19.9835 15.8165 20 16 20C17.6569 20 19 18.6569 19 17C19 16.8165 18.9835 16.6368 18.952 16.4623L19.766 15.6486C19.9175 16.0707 20 16.5257 20 17ZM16 13C16.999 13 17.9125 13.3662 18.6135 13.9717L17.9048 14.6821C17.3867 14.2559 16.7232 14 16 14C14.3432 14 13 15.3431 13 17C13 17.7229 13.2557 18.386 13.6815 18.904L12.9718 19.6135C12.3663 18.9125 12 17.999 12 17C12 14.7909 13.7909 13 16 13Z" fill="#191919"/>
</g>
</g>
</g>
</g>
</svg>
