<svg width="144" height="144" viewBox="0 0 144 144" fill="none" xmlns="http://www.w3.org/2000/svg">
<g id="Illustration/Cloud">
<g id="Cloud" clip-path="url(#clip0_0_11035)">
<rect id="Background" opacity="0.01" width="144" height="144" fill="#2C2C39"/>
<g id="Cloud_2">
<rect id="Background_2" opacity="0.01" width="144" height="144" fill="#2C2C39"/>
<g id="Illustration">
<path id="Combined Shape" fill-rule="evenodd" clip-rule="evenodd" d="M69.4878 31L68.5873 31.0138C54.8266 31.4371 43.3271 41.5264 40.9296 54.9557L40.8473 55.4594L40.5704 55.5205C30.4243 57.8391 23 67.5795 23 79C23 90.4092 30.3823 100.035 40.3501 102.429L43.2955 99.4704C33.8352 98.4459 26.4138 89.6714 26.4138 79C26.4138 68.6643 33.4064 60.0026 42.6167 58.62L43.9084 58.4261L44.0598 57.1233C45.5566 44.2447 56.4655 34.4286 69.4878 34.4286C79.85 34.4286 88.8721 40.6434 92.8816 49.6696L95.4409 47.0993C90.6517 37.5008 80.7713 31 69.4878 31ZM96.8774 50.5053L94.1586 53.2358C94.5115 54.5119 94.7691 55.8293 94.9233 57.1802L95.1288 58.9807L96.9074 58.6746C97.8567 58.5112 98.8272 58.4286 99.8103 58.4286C110.148 58.4286 118.586 67.6094 118.586 79C118.586 90.11 110.542 99.1641 100.495 99.558L99.7771 99.5718L48.0227 99.5714L44.62 102.989L45.1564 103L99.8103 103L100.595 102.985C112.566 102.516 122 91.8974 122 79C122 65.7745 112.097 55 99.8103 55L98.6389 55.033L98.0659 55.0789C97.7905 53.5053 97.3907 51.9774 96.8774 50.5053Z" fill="#585772"/>
<path id="Rectangle Copy" fill-rule="evenodd" clip-rule="evenodd" d="M107.404 31.0664C108.069 30.4013 109.148 30.4013 109.813 31.0664C110.478 31.7315 110.478 32.8099 109.813 33.475L32.7381 110.55C32.0729 111.215 30.9946 111.215 30.3295 110.55C29.6644 109.885 29.6644 108.806 30.3295 108.141L107.404 31.0664Z" fill="#585772"/>
</g>
</g>
</g>
</g>
<defs>
<clipPath id="clip0_0_11035">
<rect width="144" height="144" fill="white"/>
</clipPath>
</defs>
</svg>
