<svg width="32" height="32" viewBox="0 0 32 32" fill="none" xmlns="http://www.w3.org/2000/svg">
<g id="Icons/Check/Check">
<g id="Icons/Check/Check_2">
<g id="Check">
<g id="Path">
<path id="Rectangle-Copy-52" d="M14.1217 23.1421L26.1425 11.1213C26.533 10.7308 26.533 10.0976 26.1425 9.70708C25.752 9.31655 25.1188 9.31655 24.7283 9.70708L12.7075 21.7279C12.317 22.1184 12.3169 22.7516 12.7075 23.1421C13.098 23.5326 13.7312 23.5326 14.1217 23.1421Z" fill="#191919"/>
<path id="Rectangle-Copy-53" d="M13.7785 21.3639L8.12166 15.7071C7.73113 15.3166 7.09797 15.3166 6.70744 15.7071C6.31692 16.0976 6.31692 16.7308 6.70744 17.1213L12.3643 22.7781C12.7548 23.1687 13.388 23.1687 13.7785 22.7781C14.169 22.3876 14.169 21.7545 13.7785 21.3639Z" fill="#191919"/>
</g>
</g>
</g>
</g>
</svg>
